<?xml version="1.0" standalone="no"?>
<!DOCTYPE svg PUBLIC "-//W3C//DTD SVG 20010904//EN"
 "http://www.w3.org/TR/2001/REC-SVG-20010904/DTD/svg10.dtd">
<svg version="1.0" xmlns="http://www.w3.org/2000/svg"
 width="300.000000pt" height="300.000000pt" viewBox="0 0 300.000000 300.000000"
 preserveAspectRatio="xMidYMid meet">
<metadata>
Created by potrace 1.10, written by Peter Selinger 2001-2011
</metadata>
<g transform="translate(0.000000,300.000000) scale(0.100000,-0.100000)"
fill="#000000" stroke="none">
<path d="M1581 2621 c-12 -12 -21 -25 -21 -31 0 -16 -46 -12 -60 5 -18 21 -47
19 -60 -6 -11 -19 -13 -19 -29 -5 -24 22 -61 21 -61 -2 0 -16 11 -17 108 -17
90 0 111 3 126 18 21 21 40 22 56 2 7 -8 20 -15 30 -15 10 0 48 -13 84 -30 61
-27 66 -32 66 -60 0 -19 11 -46 27 -67 19 -25 29 -53 35 -100 8 -73 16 -87 64
-109 28 -14 34 -22 34 -49 0 -17 5 -47 11 -65 9 -24 9 -46 -1 -89 -18 -82 -28
-98 -79 -121 -87 -38 -96 -45 -99 -72 -2 -20 10 -41 54 -89 72 -82 119 -152
178 -265 41 -81 52 -94 96 -118 105 -57 125 -112 95 -261 -10 -49 -91 -161
-147 -205 -29 -22 -60 -46 -68 -53 -19 -17 -80 -38 -90 -32 -5 3 -11 1 -14 -4
-4 -5 -18 -8 -34 -6 -15 1 -30 -2 -34 -9 -6 -8 -12 -8 -26 1 -15 9 -22 9 -32
0 -10 -9 -11 -9 -5 2 6 11 -1 12 -34 6 -28 -5 -41 -3 -41 5 0 6 -5 8 -12 4 -6
-4 -16 -1 -22 7 -6 8 -32 23 -57 32 -61 23 -124 78 -170 149 -44 69 -67 140
-72 226 -5 84 -20 100 -79 83 -30 -9 -59 -30 -95 -67 -76 -78 -116 -69 -105
23 6 52 -16 83 -58 83 -39 0 -82 43 -74 74 5 19 -3 34 -36 70 -37 40 -42 50
-36 77 6 31 -20 83 -51 102 -19 11 -16 46 4 54 15 6 15 7 -3 13 -33 12 -54 0
-54 -32 0 -21 12 -40 45 -72 33 -33 41 -45 30 -50 -9 -3 -15 -18 -15 -35 0
-22 11 -39 44 -68 38 -34 43 -42 38 -71 -3 -25 1 -39 18 -57 23 -24 104 -50
122 -39 8 5 9 0 3 -17 -19 -59 -17 -107 4 -128 12 -12 31 -21 44 -21 33 0 90
42 112 84 11 21 27 36 38 36 10 0 31 7 46 15 l29 14 1 -77 c2 -279 260 -496
536 -452 201 32 358 187 395 388 15 84 1 131 -54 187 -24 23 -58 48 -77 54
-29 9 -40 22 -69 83 -50 104 -118 204 -190 281 -62 67 -72 97 -32 97 31 0 119
49 137 77 11 16 15 37 12 57 -4 25 -1 35 14 44 20 13 26 47 9 57 -5 3 -10 17
-10 31 0 13 -4 24 -10 24 -6 0 -7 18 -4 44 6 38 4 46 -15 55 -11 7 -21 9 -21
6 0 -3 -13 1 -30 10 -27 14 -30 20 -30 68 0 61 -29 130 -60 147 -16 9 -19 15
-11 23 15 15 14 52 -2 65 -7 6 -34 16 -60 23 -28 7 -60 24 -77 40 l-29 29 -3
-27 -3 -28 -15 30 c-19 37 -43 42 -69 16z"/>
<path d="M1321 2604 c-11 -15 -21 -37 -21 -50 0 -25 -37 -94 -51 -94 -5 0 -11
11 -15 25 -10 40 -24 29 -24 -18 0 -42 -1 -44 -30 -44 -32 0 -53 -13 -32 -20
23 -8 13 -42 -18 -58 -16 -8 -34 -24 -40 -34 -14 -26 -13 -84 2 -99 9 -9 8
-16 -5 -30 -26 -29 -22 -79 9 -107 18 -17 25 -31 21 -45 -3 -13 0 -20 9 -20 9
0 14 -11 14 -30 0 -16 6 -33 14 -37 8 -4 15 -17 18 -28 2 -14 11 -20 32 -20
16 -1 32 -7 34 -15 9 -27 57 -59 90 -60 26 0 35 -5 43 -27 6 -16 14 -35 19
-43 8 -18 58 -26 73 -11 6 6 16 6 28 -2 15 -9 23 -7 42 11 13 12 28 22 35 22
26 0 18 -19 -28 -69 -27 -29 -57 -72 -67 -97 -18 -43 -33 -57 -33 -30 0 23
-87 128 -148 179 -31 26 -86 64 -121 85 -106 61 -189 190 -228 352 -19 80 -31
73 -32 -20 -1 -69 7 -100 24 -94 7 3 33 -28 65 -78 66 -104 91 -132 160 -176
83 -54 187 -150 231 -214 25 -36 47 -58 58 -58 12 0 33 20 54 53 19 28 44 61
54 72 10 11 26 32 35 47 17 25 17 28 -1 49 -17 21 -21 22 -50 9 -61 -25 -141
-17 -141 15 0 20 -49 55 -77 55 -13 0 -35 11 -49 25 -14 14 -38 31 -53 39 -16
9 -34 30 -40 48 -18 47 -47 108 -68 140 -15 23 -16 33 -6 59 7 17 9 52 7 77
-5 44 -3 49 30 81 20 19 36 41 36 48 0 15 46 60 83 79 28 15 74 96 69 121 -2
7 2 22 8 34 17 31 5 34 -19 3z"/>
<path d="M1005 2237 c-4 -10 -6 -57 -3 -106 3 -71 9 -95 30 -132 38 -65 89
-113 171 -160 82 -48 175 -132 203 -184 10 -19 22 -35 26 -35 38 0 -75 135
-173 207 -148 109 -165 127 -194 206 -14 40 -32 106 -39 147 -9 52 -15 69 -21
57z"/>
<path d="M833 2104 c-8 -22 4 -97 22 -136 15 -33 15 -32 10 36 l-6 68 26 -4
c32 -7 32 5 -1 31 -32 25 -43 26 -51 5z"/>
<path d="M770 1951 c-24 -45 2 -138 55 -198 38 -42 47 -28 16 24 -27 44 -52
120 -45 138 4 8 17 15 30 15 29 0 31 15 5 30 -29 15 -49 12 -61 -9z"/>
</g>
</svg>
